#define 1_width 15
#define 1_height 15
static unsigned char 1_bits[] = {
   0x00, 0x00, 0x00, 0x00, 0x90, 0x09, 0x90, 0x09, 0xd0, 0x0c, 0x70, 0x0c,
   0x10, 0x06, 0x90, 0x03, 0xf0, 0x00, 0x10, 0x00, 0x10, 0x00, 0x10, 0x00,
   0x10, 0x00, 0x00, 0x00, 0x00, 0x00 };
