#define 2_width 15
#define 2_height 15
static unsigned char 2_bits[] = {
   0x00, 0x00, 0x00, 0x00, 0xe0, 0x00, 0xb0, 0x01, 0x10, 0x03, 0x08, 0x02,
   0x18, 0x03, 0xb0, 0x01, 0xe0, 0x00, 0xe0, 0x00, 0xe0, 0x01, 0x30, 0x01,
   0x18, 0x02, 0x00, 0x00, 0x00, 0x00 };
