#define 3_width 15
#define 3_height 15
static unsigned char 3_bits[] = {
   0x00, 0x00, 0x00, 0x00, 0x10, 0x00, 0x10, 0x00, 0x10, 0x00, 0x10, 0x07,
   0x90, 0x07, 0xd0, 0x04, 0x30, 0x04, 0x10, 0x04, 0x00, 0x04, 0x00, 0x04,
   0x00, 0x04, 0x00, 0x00, 0x00, 0x00 };
