#define 4_width 15
#define 4_height 15
static unsigned char 4_bits[] = {
   0x00, 0x00, 0x00, 0x00, 0x30, 0x0c, 0x30, 0x0c, 0x50, 0x0a, 0x50, 0x0b,
   0x90, 0x09, 0x90, 0x09, 0x90, 0x09, 0x50, 0x0a, 0x70, 0x0e, 0x30, 0x0c,
   0x10, 0x08, 0x00, 0x00, 0x00, 0x00 };
