#define 4_width 15
#define 4_height 15
static unsigned char 4_bits[] = {
   0x00, 0x00, 0x00, 0x00, 0x08, 0x08, 0x18, 0x0c, 0x28, 0x0a, 0x48, 0x09,
   0x88, 0x08, 0x88, 0x08, 0x88, 0x08, 0x48, 0x09, 0x28, 0x0a, 0x18, 0x0c,
   0x08, 0x08, 0x00, 0x00, 0x00, 0x00 };
