#define 5_width 15
#define 5_height 15
static unsigned char 5_bits[] = {
   0x00, 0x00, 0x00, 0x00, 0x30, 0x0e, 0xf0, 0x0f, 0x90, 0x09, 0x10, 0x08,
   0x10, 0x08, 0x10, 0x08, 0x10, 0x08, 0x10, 0x08, 0x10, 0x08, 0x10, 0x08,
   0x10, 0x08, 0x00, 0x00, 0x00, 0x00 };
