#define 6_width 15
#define 6_height 15
static unsigned char 6_bits[] = {
   0x00, 0x00, 0x00, 0x00, 0x30, 0x18, 0x70, 0x1e, 0xd0, 0x13, 0x90, 0x13,
   0xd0, 0x16, 0x70, 0x1c, 0x30, 0x18, 0x10, 0x10, 0x10, 0x10, 0x10, 0x10,
   0x10, 0x10, 0x00, 0x00, 0x00, 0x00 };
