#define 7_width 15
#define 7_height 15
static unsigned char 7_bits[] = {
   0x00, 0x00, 0x70, 0x00, 0xd0, 0x01, 0x10, 0x03, 0x10, 0x06, 0x10, 0x04,
   0x10, 0x0c, 0x10, 0x08, 0x10, 0x08, 0x10, 0x08, 0x10, 0x08, 0x10, 0x08,
   0x10, 0x08, 0x00, 0x00, 0x00, 0x00 };
