#define A_width 15
#define A_height 15
static unsigned char A_bits[] = {
   0x00, 0x00, 0x00, 0x00, 0xe0, 0x03, 0xf8, 0x0f, 0xf8, 0x0f, 0xfc, 0x1f,
   0xfc, 0x1f, 0xfc, 0x1f, 0xfc, 0x1f, 0xfc, 0x1f, 0xf8, 0x0f, 0xf8, 0x0f,
   0xe0, 0x03, 0x00, 0x00, 0x00, 0x00 };
