#define archupdate_width 17
#define archupdate_height 17
static unsigned char archupdate_bits[] = {
   0x00, 0x00, 0x00, 0x00, 0x00, 0x00, 0x00, 0x01, 0x00, 0x00, 0x01, 0x00,
   0x80, 0x03, 0x00, 0x00, 0x03, 0x00, 0x00, 0x06, 0x00, 0xc0, 0x01, 0x00,
   0xe0, 0x1c, 0x00, 0x60, 0x36, 0x00, 0x30, 0x63, 0x00, 0x30, 0x41, 0x00,
   0x38, 0x77, 0x00, 0x18, 0x36, 0x00, 0x04, 0x5c, 0x00, 0x00, 0x00, 0x00,
   0x00, 0x00, 0x00 };
