#define arch_width 15
#define arch_height 15
static unsigned char arch_bits[] = {
   0x80, 0x00, 0xc0, 0x01, 0xc0, 0x01, 0xe0, 0x03, 0x00, 0x03, 0xc0, 0x07,
   0xf0, 0x07, 0xf8, 0x0f, 0xf8, 0x01, 0xfc, 0x07, 0x3c, 0x1e, 0x1e, 0x3c,
   0x1e, 0x3c, 0x1e, 0x3c, 0x03, 0x60 };
