#define HA_width 15
#define HA_height 15
static unsigned char HA_bits[] = {
   0x00, 0x00, 0xe0, 0x03, 0xf8, 0x0f, 0xfc, 0x1f, 0x3c, 0x1e, 0x1e, 0x3c,
   0x0e, 0x38, 0x0e, 0x38, 0x0e, 0x38, 0x1e, 0x3c, 0x3c, 0x1e, 0xfc, 0x1f,
   0xf8, 0x0f, 0xe0, 0x03, 0x00, 0x00 };
