#define IA_width 15
#define IA_height 15
static unsigned char IA_bits[] = {
   0x00, 0x00, 0x00, 0x00, 0xe0, 0x03, 0x18, 0x0c, 0x08, 0x08, 0x04, 0x10,
   0x04, 0x10, 0x04, 0x10, 0x04, 0x10, 0x04, 0x10, 0x08, 0x08, 0x18, 0x0c,
   0xe0, 0x03, 0x00, 0x00, 0x00, 0x00 };
