#define package_width 23
#define package_height 20
static unsigned char package_bits[] = {
   0x00, 0x1c, 0x00, 0x80, 0xe3, 0x01, 0xf8, 0x03, 0x1e, 0x07, 0x1f, 0x70,
   0x07, 0xf8, 0x71, 0x3f, 0xc0, 0x6f, 0xc1, 0xc1, 0x43, 0x01, 0xbe, 0x43,
   0x01, 0x88, 0x43, 0x01, 0x88, 0x41, 0x01, 0x08, 0x40, 0x01, 0x08, 0x40,
   0x01, 0x08, 0x40, 0x01, 0x08, 0x40, 0x01, 0x08, 0x40, 0x01, 0x08, 0x40,
   0x06, 0x08, 0x30, 0x78, 0x08, 0x0f, 0x80, 0xff, 0x00, 0x00, 0x1c, 0x00 };
