#define power_width 12
#define power_height 12
static unsigned char power_bits[] = {
   0x60, 0x00, 0x64, 0x02, 0x66, 0x06, 0x66, 0x06, 0x63, 0x0c, 0x63, 0x0c,
   0x03, 0x0c, 0x03, 0x0c, 0x06, 0x06, 0x0e, 0x07, 0xfc, 0x03, 0xf0, 0x00 };
