#define reboot_width 12
#define reboot_height 12
static unsigned char reboot_bits[] = {
   0x1f, 0x00, 0x1e, 0x03, 0x1e, 0x07, 0x1e, 0x06, 0x13, 0x0c, 0x03, 0x0c,
   0x03, 0x0c, 0x03, 0x0c, 0x06, 0x06, 0x0e, 0x07, 0xfc, 0x03, 0xf0, 0x00 };
