#define shutdown_width 12
#define shutdown_height 12
static unsigned char shutdown_bits[] = {
   0xf0, 0x00, 0xfc, 0x03, 0x0e, 0x07, 0x9e, 0x07, 0xfb, 0x0d, 0xf3, 0x0c,
   0xf3, 0x0c, 0xfb, 0x0d, 0x9e, 0x07, 0x0e, 0x07, 0xfc, 0x03, 0xf0, 0x00 };
