#define sleep_width 12
#define sleep_height 12
static unsigned char sleep_bits[] = {
   0x00, 0x01, 0x00, 0x03, 0x00, 0x03, 0x00, 0x07, 0x80, 0x07, 0x80, 0x07,
   0xc0, 0x07, 0xf0, 0x03, 0xff, 0x03, 0xfe, 0x01, 0x78, 0x00, 0x00, 0x00 };
