#define spade_width 9
#define spade_height 13
static unsigned char spade_bits[] = {
   0x00, 0x00, 0x00, 0x00, 0x10, 0x00, 0x38, 0x00, 0x7c, 0x00, 0x7c, 0x00,
   0xfe, 0x00, 0xfe, 0x00, 0x7c, 0x00, 0x10, 0x00, 0x38, 0x00, 0x00, 0x00,
   0x00, 0x00 };
