#define volume0_width 14
#define volume0_height 9
static unsigned char volume0_bits[] = {
   0x10, 0x00, 0x18, 0x00, 0x9c, 0x08, 0x1f, 0x05, 0x1f, 0x02, 0x1f, 0x05,
   0x9c, 0x08, 0x18, 0x00, 0x10, 0x00 };
